<?xml version="1.0" encoding="utf-8"?>
<!-- Generator: Adobe Illustrator 22.1.0, SVG Export Plug-In . SVG Version: 6.00 Build 0)  -->
<svg version="1.1" id="Layer_1" xmlns="http://www.w3.org/2000/svg" xmlns:xlink="http://www.w3.org/1999/xlink" x="0px" y="0px"
	 viewBox="0 0 301 124.5" enable-background="new 0 0 301 124.5" xml:space="preserve">
<g>
	<g>
		<path fill="#F9A639" d="M53.9,0.1c-8,0-8,0-16.7,2.4c0,0,1.9,0.5,3.7,0.5c1.8,0,3.7-0.9,3.7-0.9s4.4-1,5.9-1.2
			c1.5-0.2,4.6,0.7,4.6,0.7l4.6,0.6c0,0,2.8,0.8,4.2,1.1C65.2,3.6,69.3,3,69.3,3C58.8-0.4,53.9,0.1,53.9,0.1z"/>
		<path fill="#F9A639" d="M18.5,90.6l-1.3-0.9l-1.4-2.3c0.8,0.3,1.8,0.8,2.5,1.1C18.4,89.1,18.4,89.9,18.5,90.6z"/>
		<path fill="#F9A639" d="M104.9,50.2c0,4.4,0,5.1-0.6,8.9c-0.8,5.3-0.9,5.9-2,9.7c-1.7,3.9-2,4.6-4.2,8.2c-2.6,4.6-2.8,4.8-4.8,7.6
			c-0.7,0.3-2.3,1.1-3.2,1.4c2.2-4.9,4.1-8.6,4.6-15.4c0.5-0.1,1-0.2,1.4-0.3c0.2-4.8,0.3-7-0.9-13.7c-2.5,0.5-5.3,0.9-8.6,1.3
			c-3-3.6-3-3.6-5.1-5.9c-0.2-2.3-0.4-4.6-0.8-6.8c1.6-2.8,3.2-5.7,4.5-9.4c2.9-0.4,5.4-0.8,7.6-1.3c0.8,1,1.9,2.3,2.6,3.4
			c1.6-0.4,2.9-0.8,3.9-1.3c2.7,5.2,3.5,6.8,4.8,12.3c0.7,0.7,0.8,0.7,0.8,1.1L104.9,50.2z"/>
		<path fill="#F9A639" d="M93.3,20.7l2.4,3.3l2.1,3.5l0.7,1.3l1.8,3.7l0.7,1.6l-0.3-0.7l0.3,1.5c0.5,1.3,1.2,3,1.7,4.4l-0.1-0.3
			l1,4.1l0.2,1.2c0.1,1,0.3,2.4,0.3,3.4c-0.3-1.2-0.6-2.9-1-4.1c-1.4-3.4-1.6-4-3.5-7.3c-0.6-1.2-1.3-2.9-1.9-4.1
			c-0.4,0.2-0.9,0.4-1.4,0.6c-0.3-1.1-0.6-2.7-0.9-3.8c0.6-0.3,1-0.5,1.4-0.8c-0.7-0.9-1.6-2-2.3-2.9c-0.2,0.4-0.6,0.9-0.9,1.2
			c0.4,1.5,0.9,3.5,1.1,5.1c-0.5,0.3-1.2,0.8-1.7,1.1c-1.3-1.2-3-2.8-4.4-4c-0.5,1.1-1.2,2.5-1.8,3.6l-0.1,1.6
			c-1.1-0.2-2.7-0.4-3.8-0.6c-0.4-1.4-0.9-3.2-1.4-4.6c1,0.2,2.4,0.4,3.4,0.6l-0.6-2l-1.7-0.8c-0.7-1.2-1.7-2.9-2.5-4.1l0.9-1.1
			c0.8,0.9,1.9,2.1,2.7,3c0.5-0.5,1.2-1.3,1.7-1.8l-1.2-2c-1.1-0.6-2.5-1.4-3.6-2c-0.5-2.3-0.8-4.1-2.5-6.7c2.2,0.8,4.2,1.6,6.5,2.7
			c-0.3-0.6-0.7-1.3-1-1.8c0-0.2,0-0.5-0.1-0.7c0.3-0.3,0.4-0.3,0.3-0.7l2.9,2.4c0,0,0,0,0,0c0-0.1-0.1-0.1-0.2-0.2
			c-1.7-1.4-4-3.1-5.8-4.4l-0.1,0l3.2,2.2l3,2.5l2.9,2.7l2.6,2.9L93.3,20.7z"/>
		<path fill="#F9A639" d="M18.3,87.5l-2-1.7L15.1,86l-1.7-2.3c-0.5,0.1-1.1,0.2-1.5,0.3c-0.7-1.1-2-0.5-2.6-1.7
			c-0.7,0.5-0.7-0.8-0.8-0.2c-1.7-2.6-3.1-5.4-4.3-8.2C4.7,72.4,5,72,7,70.2L8.5,72c0.3-1.2,0.7-2.7,1-3.8l1.9,1.2
			c0.2,1.2,0.5,2.8,0.7,4c0.7-0.8,1.6-1.9,2.3-2.6c2.6,4.2,3.1,5,6.3,9.2C19.2,83,18.7,84.1,18.3,87.5z"/>
		<path fill="#F9A639" d="M26.2,90.4c-0.1,0.6-0.2,1.4-0.2,2.1c-0.6,0.4-1.3,0.9-1.8,1.3l-1.4-1.5c1-1.6,1-1.6,2.5-3.1
			c-0.3-1-0.8-2.3-1.1-3.3l2.2-0.1C26.2,87.3,26.2,89.1,26.2,90.4z"/>
		<path fill="#F9A639" d="M18.6,71.7l-1.8-3.4l-1.5,0l-0.8,0.9l-2-1.9c-0.7-1.2-1.8-2.9-2.5-4.1l0.7-0.8l0.8,1.6
			c0.7-0.4,1.7-0.9,2.4-1.3c1,0.9,2.4,2.2,3.5,3.1c0.7,1.7,1.6,3.9,2.3,5.5L18.6,71.7z"/>
		<path fill="#F9A639" d="M17.6,22.5c0.2,0.6,0.5,1.4,0.8,2c-0.9,1.1-2.1,2.5-2.9,3.6c-0.1-1.1-0.2-2.5-0.1-3.5
			c0.9-1.7,2.3-3.8,3.3-5.4l-1.1-0.1c-1.3,1.6-3.1,3.9-4.3,5.6c0.4-1.2,0.9-2.8,1.3-4l-0.3-0.9c-1.2,1.4-2.7,3.3-3.7,4.8
			c0.4,0,1,0,1.5,0c-0.4,1.4-0.8,3.3-1.1,4.8c-0.7,0.5-1.6,1.1-2.3,1.6c-0.1,1.3-0.2,3-0.3,4.3l-1.7,2.1c0.1-1.7,0.3-4.1,0.6-5.8
			l-1.7,1.7c-0.3,3.9-0.4,4.2-0.2,6.7c-0.5,1.5-1.1,3.4-1.5,4.9c-0.9-0.3-1.6-0.7-2.2-1c-0.3,2.5-0.5,5.8-0.6,8.3
			c-0.3-0.4-0.7-0.9-1-1.3c0-3.3-0.1-6.7,1-11.3l0.1-0.7L2.6,35l1.6-3.8L6,27.6l2.1-3.5l2.4-3.3l2.6-3.1l2.8-2.9l3-2.6l2.7-2.1
			c-0.3,0.2-0.6,0.5-0.9,0.7l-1.6,1.4c0.1,0.1,0.2,0.3,0.3,0.4l-1.1,1.3c0.4,0.5,1.2,0.9,2.5,1.3L20,16.5c0.8-0.2,1.8-0.5,2.6-0.8
			c-0.5,2.5-0.6,2.8-0.4,4.9C20.8,21.2,19,22,17.6,22.5z"/>
		<path fill="#F9A639" d="M4.1,47.8L5.6,45c0.6,4.9,0.6,5.1,1.3,8.1C4.9,49.8,4.8,49.6,4.1,47.8z"/>
		<path fill="#F9A639" d="M3.8,68.7c-3.4-9-3.1-12-3.4-15.7c0.2,1.5,1,3.7,1.4,5.2c0.5,1.9,0.8,5.2,1.4,7.1L3.8,68.7z"/>
		<path fill="#F9A639" d="M4.1,59l0.4,2.9C4.3,63,4,64.5,3.9,65.6c-0.5-0.8-1.2-1.9-1.6-2.8L2,59.7l0.7-1c0.3-1.2,0.7-2.9,1.1-4.1
			l0.7,1.6L4.1,59z"/>
		<path fill="#F9A639" d="M22.9,15.8c-0.5,2.5-0.6,2.8-0.4,4.9c-1.4,0.5-3.2,1.3-4.5,1.8"/>
		<path fill="#F9A639" d="M21.9,10.2c-0.3,0.2-0.6,0.5-0.9,0.7l-1.6,1.4c0.1,0.1,0.2,0.3,0.3,0.4l-1.1,1.3c0.4,0.5,1.2,0.9,2.5,1.3
			l-0.7,1.3"/>
		<path fill="#F9A639" d="M76.2,70.7C76.2,70.7,76.2,70.7,76.2,70.7C76.2,70.7,76.2,70.7,76.2,70.7"/>
		<path fill="#F9A639" d="M76.2,70.7C76.2,70.7,76.2,70.7,76.2,70.7C76.2,70.7,76.2,70.7,76.2,70.7"/>
		<path fill="#F9A639" d="M77.4,68.6C77.5,68.6,77.4,68.6,77.4,68.6"/>
		<path fill="#F9A639" d="M77.4,68.6C77.5,68.6,77.4,68.6,77.4,68.6"/>
		<path fill="#F9A639" d="M76.9,69.8C76.9,69.9,76.8,69.8,76.9,69.8L76.9,69.8"/>
		<path fill="#F9A639" d="M76.9,69.8C76.9,69.9,76.8,69.8,76.9,69.8L76.9,69.8"/>
		<path fill="#F9A639" d="M29.8,25.8C29.7,25.8,29.7,25.8,29.8,25.8L29.8,25.8"/>
		<path fill="#F9A639" d="M29.8,25.8C29.7,25.8,29.7,25.8,29.8,25.8L29.8,25.8"/>
		<path fill="#F9A639" d="M32.8,25.3C32.7,25.3,32.6,25.4,32.8,25.3"/>
		<path fill="#F9A639" d="M32.8,25.3C32.7,25.3,32.6,25.4,32.8,25.3"/>
		<path fill="#F9A639" d="M34,35.5C34,35.5,34.1,35.5,34,35.5"/>
		<path fill="#F9A639" d="M34,35.5C34,35.5,34.1,35.5,34,35.5"/>
		<path fill="#F9A639" d="M55.8,74.8c2.8,2.4,0.6,4.7,1.4,8.8c0.7,3.4,1,6.7,2.4,9.6c1.2,2.6-0.3,3.1,3.8,5.4
			c-1,0.5-1.1,0.9-1.6,0.8c0.1,0.2,0.2-0.2,0.4-0.4c0,0-0.2-0.1-0.2-0.1c-0.3,0.2-0.5,0.6-0.2,0.5c0-0.1-0.5-0.2-0.6-0.3
			c1.1-0.6-0.1,0-0.1-0.4c0-0.2,0-0.4-0.5-0.5c0.2,0.6-0.1,0,0,0.2c-0.2-0.1-0.7-0.5-0.2-0.2c-0.1-0.1-0.1-0.2-0.2-0.3
			c-0.2,0-0.3-0.2-0.2-0.5c0,0.3-0.2,0.3-0.4,0c0.1,0,0.1,0,0.1,0.1c0,0-0.8-0.4,0-0.2c-0.3-0.2-0.4-0.2-0.3-0.4
			c-0.2-0.2,0-0.1,0.2,0c-0.2-0.1-0.3-0.2-0.2-0.3c-0.1-0.1-0.2-0.2-0.1-0.2c-0.4,0.1-0.4-0.2-0.4-0.5c-0.2-0.1-0.5-0.3-0.1-0.1
			c0.3,0,0.4,0,0.5-0.1c-0.2,0-0.3-0.1-0.4-0.3c0,0-0.8,0.3-0.2,0.1c-0.3-0.3-0.9-1-0.9-1c0.1-0.4,0.2-0.4,0.3-0.1
			c1.5-1.6-1.1-1.9-1.5-5.5c-0.4-2.9-0.3-7.6-0.6-11.1C56.1,76.8,55.9,75.8,55.8,74.8"/>
		<path fill="#F9A639" d="M30.5,19.7c2.4-3.4,6.7-6,10.5-5.9c-0.1-0.1,0-0.1,0.1-0.1c0.2,0,0.7-0.1,1.1-0.2l-0.1,0
			c1.1-0.1-0.3,0.3-0.8,0.4c0,0,0.1,0,0.1-0.1c0,0-0.1,0.1-0.1,0.1c0.1,0-0.1,0.1-0.1,0.1c0.5-0.2,1-0.4,1.5-0.5
			c0.4-0.2,0.9-0.1,1.1,0.3c0.3-0.1,0.2-0.1,0.5-0.2c-0.2-0.1,0.1-0.1,0.3-0.2c-0.4,0-0.2,0,0.1,0c-0.6-0.2,2.4,0.6,3.6,0.8
			c0,0.1,0,0.1,0.1,0.1c-1.8,1.1,0.7,0.3,1.5,0.4c0.2,0.7,0.5,1,1.1-0.1c2-0.4,0.7-0.3-0.1-0.1c2.1,0.1,4.9,0.1,5.8,0
			c-0.6,0.4-0.7,0.6-0.6,0.7c0.1,0-0.2,0.2-0.3,0.4c0.4-0.5,1.2-0.9,2.2-1.2c0-0.1,0-0.3,0-0.2c-0.7,0,0-0.2,0.4-0.3
			c-0.3,0.2-0.2,0.1,0.1,0c-0.6-0.1-1.2-0.3-0.4-0.8c-0.2-0.3,0.2-0.4,0.7-0.5c-0.2-0.2,0.2-0.2,0.6-0.2c0.2,0.1,0.4,0.5-0.1,1.1
			c0.4,0.1-0.1,0.1-0.3,0.2c0,0,0.1,0,0.1,0c0,0-0.1,0-0.1,0c0.2,0,0.8,0,0.5,0.1c0.6-0.1,0.2,0.3,0,0.4c0,0-0.2,0.3-0.2,0.3
			c0.6,0.3,1.8-1.1,0.8,0.7c1.1-0.5,2.1-1.4,2.1-1.4c0,0.1,0.1-0.3,0.1-0.2c0.5,0,0.9,0,1.4,0.1c-0.1,0-0.3,0.1-0.4,0.1
			c0.4,0.1,0.9,0.2,0.2,0.4c-0.2,0.7-1.2,1.3-2.1,1.1c0,0,0.1,0,0.1,0c0,0-0.3-0.1-0.1,0c-0.5,0,0.1,0.1-0.1,0.1
			c-0.2,0.2-1.6,0.6-2.3,0.7c-0.2-0.1-0.4-0.1-0.6-0.2c0,0.1-0.1,0.1-0.2,0c0.5,0.2,1.2,0.7-0.6,1.1c-0.5,0.5-1.2,0.5-1.9,0
			c0.1,0.1,0.3,0.4,0.3,0.4c0,0.2-1.4,1.4-3.5,2.9c0.1,0,0.1,0.1,0,0.1c0.3,0,0.1,0.2-0.1,0.4c1.2-0.5,0.8,0.1,0.1,0.9
			c0.2-0.1,0.6-0.2,0.2,0c2,0.4,3,0.7,4.1,1.2c-0.5,1.2-0.5,2.3,0.3,3c0.1-0.6,0.4-0.6,0.6-0.5c1.1-1.5,3.3-4.9,4.1-6.2
			c0.8-1.1,1.9-1.3,2.9-0.6c0.3,0,0.4,0,0.2,0.1c1,0.5,0.8,1.2-0.1,1.8c0.8-0.1,1.2,0.1,0.1,0.7c0.3-0.2,1.3-0.7,0.8-0.2
			c0.3-0.2,0.3-0.2,0.1,0.1c1.3-0.5,1.4-0.6,2-1.2c0.1-0.2,0.3-0.4,0.3-0.3c0,0.1,0.1,0.4,0.2,0.7c-0.1,0.1-0.1,0.1,0.1,0.2
			c0.1,0.1,0.2,0.2-0.3,0.3c0.1,0,0,0.1-0.1,0.1c0.1,0,0.3-0.1,0.2,0c0.2-0.1,0.4-0.1,0.1,0.1c-0.3,0.2,0.1,0.2,0,0.2
			c0.3,0,0.3,0.1-0.1,0.3c0.4,0.1,0.5,0.3,0,0.5c0.1,0-0.3,0.1-0.1-0.1c-0.2,0.1-0.1,0.3,0.1,0.5c0.2,0.1,0.3,0.2,0.2,0.4
			c0.3-0.1,0,0.1-0.1,0.2c0,0,0.1,0,0.1,0c-0.4,0.3,0.2,0.2,0,0.2c0.4,0,0.5,0,0.5,0c0.2-0.1,0.3-0.1,0.2,0.1c0.4,0,0.8,0.1,0.5,0.3
			c-1.4,0.3-0.2-0.1-1.6,0.6c0,0-0.4-0.1-0.3-0.1c0.3-0.1,0.3,0.1,0.1,0.3c0.2-0.1-0.1,0.1-0.1,0c2-0.9,1.4-0.2,2.4-0.2
			c0.1,0.4-0.1,0.6-0.5,0.7c0.3,0.1,0.6,0.1,0.1,0.1c-0.7,0.6-2.2,1.3-3.6,1.6c0,0,0.1,0,0.1-0.1c-2.2,0-4,0.4-5.7,1.2
			c-0.7,1.6,1.9,0.3,3.7-0.2c0.1,0.7-2.3,1.1,0.6,2c-0.1,0.1,0.3,0.2,0.3,0.2c-0.2,0.1,0,0.1,0.1,0.1c-1.8,0.8-3.2,0.7-3.1,0.7
			c0.2-0.2,0.3-0.2,0.5-0.2c1-0.2,1.2-0.5,1-0.8c-0.1,0.1-0.2,0-0.2-0.1c-0.9-0.4-2,1.8-1.7-0.9c-0.2,0.1-0.5,0.1-0.5-0.1
			c-1.8,1.7-3.5,1.6-5.6,2.3c0.1,0-1.5,0.8-1.9,1.1c-3.2,0.4-0.5-1.2,0.1-1.5c0.9,0,0.9-0.3,0.1-0.8c0.1-0.1,0.1,0,0.1-0.1
			c-2.9-2.6-7.2-2-16.3-2c0.8,0-6.6-0.5-5.2-0.3c-0.3,0.1-0.2,0,0-0.2c-0.5,0.1-0.6,0.1-0.2,0c0,0-0.6,0-0.1-0.5
			c-0.4-0.2-0.1-0.1-0.5-0.1c-0.2,0.1-0.6,0.3-0.3,0c0.5-0.2,0-0.2,0.1-0.2c-0.2,0-0.3,0-0.5,0c-0.2,0,0-0.1,0.4-0.1
			c-0.5,0-0.8,0-0.2-0.1c-0.6-0.2,0.2-0.2,0.5-0.3c-0.2,0.1-0.4,0.1-0.4,0c-0.6,0.3-0.3,0,0.1-0.2c0.8-0.3,0.5-0.3,0-0.2
			c-0.2,0.1-0.1,0.1,0,0c-0.6,0.3-0.3,0.1,0.1-0.2c-0.1-0.3,0.1-0.4,0.3-0.6c-0.3,0.1-0.9,0.4-0.6-0.1c0-0.1,0.1-0.2,0.3-0.2
			c-0.7-0.1-0.2-0.2,0-0.3c0.1-0.3,0.2-0.3,0.7-0.5c-0.1,0-0.1-0.1,0-0.1c-0.7,0.6-0.3,0.2,0.1-0.2l0,0c0-0.5-0.4-1.7-0.3-2.6
			C30.6,20.8,31.4,19.8,30.5,19.7"/>
		<path fill="#F9A639" d="M48.3,65c0.6-0.6,2.3-0.2,3.5-3.1c0.1,0,0.2,0,0.3-0.1c1.5,1.3,1.5,1.3,3.2,1.9c-0.5,0.5-0.3,0.7,0.1,1.1
			c-2.6,2.4,3.1,9.7,2.4,10c0.3-0.1-1,2-1,2.2c0,0-1-2.2-1-2.2c-3.4-2.4-6.1-5.7-7.4-9.3C48.3,65.4,48.3,65.2,48.3,65"/>
		<path fill="#F9A639" d="M64.9,60.2c0-1.4,0.1-2.7,1.4-1.7c0.2-0.1,0.2,0.1,0.2,0.3C66.7,59.4,66.1,60.1,64.9,60.2"/>
		<path fill="#F9A639" d="M29.6,38.8c3.8-0.1,9.3,1.3,10.4,4.6c0,0.2-1,3.8-0.6,2.8c0.1,0.8,0.5,1.6,0.8,2.3
			c-0.1-0.1,1.1,0.3,1.1,0.3c0.2-0.1,0.5-0.1,0.7-0.1c0.5,0,0.7,0,0.9-0.4c0.1,0,0.6-0.8,0.8-1.4c0.3-0.2,1.1-0.4,1.7-0.4
			c0,0-0.1,0-0.1,0c0.1,0,0.2,0,0.3,0.1c-0.6,1.8-2.3,3.7-4,4.5c-2.4,0-5.7-2.1-7.2-4.9c-0.2-0.3-0.8-1.3-0.9-1.7
			c0-0.1-0.1-0.4-0.5-0.6c-0.1-0.1-0.2-0.2-0.3-0.2c-0.2-1.2-1-3.1-2-4.5c0.2,2.3,0.5,3.7,1.2,5.5l-0.1,0c0.7,1.3-0.1,0.5-0.9-0.6
			c0,0,0,0.1,0,0.1c-0.4-1-0.1-1.6-1.1-2.1c1.3,0.3,0.3-0.7,0-1.9C29.8,40,29.7,39.3,29.6,38.8"/>
		<path fill="#F9A639" d="M42.6,48.6C42.8,48.5,42.9,48.5,42.6,48.6"/>
		<path fill="#F9A639" d="M42.6,48.6C42.8,48.5,42.9,48.5,42.6,48.6"/>
		<path fill="#F9A639" d="M40.1,48.6C40.1,48.6,40.1,48.6,40.1,48.6C40.1,48.6,40.1,48.8,40.1,48.6"/>
		<path fill="#F9A639" d="M40.1,48.6C40.1,48.6,40.1,48.6,40.1,48.6C40.1,48.6,40.1,48.8,40.1,48.6"/>
		<path fill="#F9A639" d="M40.1,48.6C40.1,48.6,40.1,48.6,40.1,48.6"/>
		<path fill="#F9A639" d="M40.1,48.6C40.1,48.6,40.1,48.6,40.1,48.6"/>
		<path fill="#F9A639" d="M47.4,56c1.7-0.7,3.1-0.3,3.3,0.1C49.2,56.2,48.9,56.2,47.4,56"/>
		<path fill="#F9A639" d="M47.4,56c1.7-0.7,3.1-0.3,3.3,0.1C49.2,56.2,48.9,56.2,47.4,56"/>
		<path fill="#F9A639" d="M54.7,67.8c1.9-0.5,0.2-13.4,8.8,6.5c0.2,0.6,0,1.2,0.1,1.7c0,0-0.2,0.1-0.2,0.1c-2.8,2-5.4,2.5-7-1.5
			c-0.3-0.8-2.2-4.9-2.2-6.2"/>
		<path fill="#F9A639" d="M44,50.6c0.4-1.6,0.8-2.5,0.6-0.5C44.5,50.2,44.2,50.5,44,50.6"/>
		<path fill="#F9A639" d="M44,50.6c0.4-1.6,0.8-2.5,0.6-0.5C44.5,50.2,44.2,50.5,44,50.6"/>
		<path fill="#F9A639" d="M52.9,67.2c1.3-3,3.2-3.4,2.5-6.5c4.2-0.7,1.3-0.1,3.2-1.8c1.2,0.5,1.7,0.2,2.6-0.7c0,0.1,0.3,0,0.3,0
			c0,0,0.1,0.1,0.1,0.1c0.9,4,2.5,2,5.3,0.8c0-0.4,0.1,0,0.2,0.2c-0.2,1.4,1.2,1.7-0.5,3.6c0-0.2,0.6,0.2,1.4,0.4
			c0.2-0.1,1.3-0.6,1.9-0.9c0,0.1,0,0.1,0,0.2c0.1-0.1,0.1-0.1,0,0c0.8,0.1,1.3,0.3,1.2,0.9c0.6-0.2,3.8,1.2,6.3,3.4
			c0.1,0.5-0.1,1.3-0.6,1.8c-0.3,0.5-0.8,1.1-0.8,1.1c-0.2,0.7-0.5,1.2-0.9,1.1c0.1,0.2,0,0.4-0.1,0.6c0.1,0,0.1,0.1,0,0.1
			c0,0.1,0.1,0.2,0.1,0.2c0,0,0-0.1,0-0.1c0.3,3.3-0.7,5.8-2.7,6.5c-0.7,0.2-2.4,1.6-2.7,2.1c0.2,0.5,0.3,1.2,0.2,1.6
			c-1.5,3.2-1.2,1.6-1.2,1.7c-0.6,0.4-0.4,1.5-1,1.7c-0.6-1.3-2-1.3-2.8-2.1c2-3.7,1-4.9-1.1-8c-1.4-2-3.2-4.9-5.3-6.5
			C54.9,70.5,55.2,68.6,52.9,67.2"/>
		<path fill="#F9A639" d="M69.2,62.3C69.2,62.3,69.3,62.2,69.2,62.3"/>
		<path fill="#F9A639" d="M69.2,62.3C69.2,62.3,69.3,62.2,69.2,62.3"/>
		<path fill="#F9A639" d="M70,62.5C70,62.5,70,62.5,70,62.5"/>
		<path fill="#F9A639" d="M70,62.5C70,62.5,70,62.5,70,62.5"/>
		<path fill="#F9A639" d="M71.2,64C71.3,63.7,71.3,63.7,71.2,64"/>
		<path fill="#F9A639" d="M71.2,64C71.3,63.7,71.3,63.7,71.2,64"/>
		<path fill="#F9A639" d="M75.1,71.1C75.1,71.1,75.1,71,75.1,71.1"/>
		<path fill="#F9A639" d="M75.1,71.1C75.1,71.1,75.1,71,75.1,71.1"/>
		<path fill="#F9A639" d="M54.9,49c0.7-0.4-0.1-1.9,1.7-0.9c0.1,0.1-0.2-0.1,0.3,0.4C56.7,48.6,55.1,48.9,54.9,49"/>
		<path fill="#F9A639" d="M54.9,49c0.7-0.4-0.1-1.9,1.7-0.9c0.1,0.1-0.2-0.1,0.3,0.4C56.7,48.6,55.1,48.9,54.9,49"/>
		<path fill="#F9A639" d="M53.4,55.3c1.2-1.1,1.5-2.9,0.9-0.3c0.8,0.1,0.1-0.5,1.3-1.3c-0.3,0,1.7,0.6,3,1.1c0.7-0.2,2.2-1,1.4-0.3
			c0.1,0.3,0.3,0.5,0.6,0.4c-0.1-0.3,0,0.1,0.1,0.2c0.3-0.1,0.5,0,0.4,0.4c0.1,1.3,0.8,2.7-2.4,3.4c0,2-1.1,2.1-2.8,3.8
			C54.7,59.5,55.1,57.7,53.4,55.3"/>
		<path fill="#F9A639" d="M47.2,46.3c0.6-0.6,1.5-0.9,2.4-0.9c0.4,0.2,2,0.9,2.1,1c0.5,0.4,0.9,0.6,1.9,1.1c0,0-0.6,0.2-0.6,0.2
			C51.2,46.4,49.4,46.8,47.2,46.3"/>
		<path fill="#F9A639" d="M47.2,46.3c0.6-0.6,1.5-0.9,2.4-0.9c0.4,0.2,2,0.9,2.1,1c0.5,0.4,0.9,0.6,1.9,1.1c0,0-0.6,0.2-0.6,0.2
			C51.2,46.4,49.4,46.8,47.2,46.3"/>
		<path fill="#F9A639" d="M49.8,45.4L49.8,45.4C49.8,45.4,49.8,45.5,49.8,45.4"/>
		<path fill="#F9A639" d="M49.8,45.4L49.8,45.4C49.8,45.4,49.8,45.5,49.8,45.4"/>
		<path fill="#F9A639" d="M50.4,60C50.4,60,50.4,59.9,50.4,60"/>
		<path fill="#F9A639" d="M50.4,60C50.4,60,50.4,59.9,50.4,60"/>
		<path fill="#F9A639" d="M50.6,59.6C50.5,59.7,50.6,59.6,50.6,59.6"/>
		<path fill="#F9A639" d="M50.6,59.6C50.5,59.7,50.6,59.6,50.6,59.6"/>
		<path fill="#F9A639" d="M50.6,58.9C50.6,58.9,50.6,58.9,50.6,58.9L50.6,58.9"/>
		<path fill="#F9A639" d="M50.6,58.9C50.6,58.9,50.6,58.9,50.6,58.9L50.6,58.9"/>
		<path fill="#F9A639" d="M50.7,58.2C50.8,58.1,50.8,58.1,50.7,58.2L50.7,58.2"/>
		<path fill="#F9A639" d="M50.7,58.2C50.8,58.1,50.8,58.1,50.7,58.2L50.7,58.2"/>
		<path fill="#F9A639" d="M31.9,23.3c0,0-0.1,0-0.1,0C31.9,23.3,31.9,23.3,31.9,23.3"/>
		<path fill="#F9A639" d="M31.9,23.3c0,0-0.1,0-0.1,0C31.9,23.3,31.9,23.3,31.9,23.3"/>
		<path fill="#F9A639" d="M32.1,23.1C31.9,23.3,31.8,23.3,32.1,23.1"/>
		<path fill="#F9A639" d="M32.1,23.1C31.9,23.3,31.8,23.3,32.1,23.1"/>
		<path fill="#F9A639" d="M32.2,28.3C32.1,28.2,32.2,28.3,32.2,28.3"/>
		<path fill="#F9A639" d="M32.2,28.3C32.1,28.2,32.2,28.3,32.2,28.3"/>
		<path fill="#F9A639" d="M15.1,23.1c-0.3,0.1-0.6,0.1,0-0.2c0.2-0.1,1-0.4,1.5-0.5c-0.1,0.1,0.1,0,0.2,0c-0.1,0,2.3-0.8,3-1
			c-0.1-0.1,0.2-0.3,0.6-0.4c0.1-0.1,0.5-0.5,1-0.7c-1.1,0.3-1.1,0.1-1.2,0.1c-1.5,0.4-2.2,0.3-0.2-1.1c-0.7,0.5-1.4,0.7-1.7,0.2
			c0.1-0.1,0.2-0.4,0.3-0.2c1.1-0.2,0.2-0.4,0.2-0.4c-0.2,0.1,0,0,0.1-0.1c-0.7-0.3,0.4-0.5,1.1-0.6c0.3-0.3,0.8-0.5,1-0.4
			c1-0.1,1.9-0.4,2.3-0.9c0.3,0,0.6-0.2,0.7-0.3c-0.2,0.1-0.4,0.1-0.6,0.1l0.1,0c-1,0.3-1.8,0.3-1.9-0.3c0.4,0.2,0-0.2,0-0.3
			c0.3-0.1,1.8-0.4,2.7-0.5c-0.1,0.1-0.3,0.2-0.5,0.2c0.1,0,0.6,0.1,0.5,0.1c0.2,0,0.3,0,0.5,0c0.3-0.1,0.7-0.2,0.1-0.2
			c1,0.1,0.8-0.4-0.4-1.2c0.9-0.2,1.7-0.4,2.6-0.6c0,0-0.1,0-0.1,0.1c0.4-0.2,1.4-0.5,1.4-0.5c0.4-0.1,0.8-0.1,1.2-0.2
			c-0.1,0-0.1,0.1-0.2,0.1c0,0,0,0,0.1,0c0,0-0.1,0.1-0.2,0.1c0,0,0.3-0.1,0.5-0.1c-0.2,0-0.2,0-0.3,0c0.2-0.1,0.4-0.1,0.6-0.1
			c0.2,0,1.2-0.1,1.7-0.3c0.1,0.1,0,0.2-0.4,0.4c0.2-0.1,0.7-0.2,0.7-0.2c-0.1,0,1,0.3,0.9,0.3c-0.1,0-0.2,0-0.3,0
			c1,0,2.7,0.2,4,0.3c-0.1,0.1,0.4,0.2,0.4,0.2c-2.5,1.6-4.5,4.3-7,5.8c0.5,0.1,1.4,0.1,0.8,0.9c0.6,0,1.1-0.7,1.6-0.5
			c0,0,0,0.1,0,0.1c0.1,0.8-0.6,3.6-0.8,3.1c-0.4,0.1,0.2-0.1,0.4-0.2c-0.3,0.1-0.5,0.2-0.1,0c0-0.1,0.1-0.4,0.3-0.5
			c-0.1,0.1-0.3,0.1-0.4,0.1c-0.3,0.1-0.8,0.3,0.2-0.2c-0.4,0-0.3-0.2,0-0.4c-0.2-0.1-0.4-0.2,0-0.4c-0.2,0-0.2-0.1,0-0.2
			c0,0,0.1-0.1,0.3-0.2c-0.3,0-0.4,0-0.1-0.2c0,0-0.3,0,0.1-0.9c-0.7,0.8-1,0.8-1.3,0.4c0.2,0,0.3,0,0.3,0.1c0,0-0.1,0.1-0.1,0.1
			c0.2,0.1,0,0.2-0.2,0.2c-0.3,0.1-0.4-0.2-0.4-0.5c-0.4-0.4-0.2-0.3-0.1-0.3c0.1-0.1,0.2-0.2,0.3-0.1c-1.5-0.1-2.6-0.4-2.7-0.6
			c-0.2,0-0.4,0-0.1-0.1c-0.4,0-0.3,0,0-0.1c0,0-0.5-0.2-0.5-0.2c-0.4,0.2-0.5,0.2,0-0.1c-0.7,0.2-0.2,0.1-0.8,0.3
			c-0.1,0,0.3,0-0.3,0.2c0.7,0-0.1,0.3,0.1,0.2c-0.3,0.1-0.5,0.2-0.6,0.1c-0.1,0-0.2,0-0.2,0.1c0.2-0.3-0.1,0-0.2,0.1
			c0-0.1,0-0.1,0.1-0.1c-0.2,0.1-0.3,0.1-0.7,0.3c0.1-0.1,0.2-0.1,0.2-0.1c-1.5,1-0.4-0.2,1.5-0.8c0-0.2-0.5-0.1,0.1-0.3
			c0.1,0-1.8,0.5-2.5,0.7c-0.1,0.2-0.3,0.4-0.7,0.4c0,0-0.4,0.1-0.6,0.2c0,0.2-0.2,0.5-1,0.7c-0.1,0-1.3,0.5-1.9,0.6
			c-0.5,0.3-1.2,0.5-1.9,0.7C17.7,22.5,16,23,15.1,23.1"/>
		<path fill="#F9A639" d="M28,34.7c-0.1-0.6,0-1.3,0.3-1.8c0.2-0.4,0.6-1.3,0.9-1.7c0.3-0.5,1.3-1.6,1.9-2c-0.2,0-0.4,0-0.3-0.3
			c-0.1,0.2,0.1,0,0.2-0.1c0-0.1,0.1-0.3-0.1-0.2c0.5-1,0.9-1.1,1.1-0.5c0,0-0.4,0.1-0.1,0.2c0.5-0.3,0.1-0.1-0.3,0.2
			c0.1,0,0.1,0,0,0c0.1,0,0.1,0,0,0c4.1-3.5,14.2-2,18.8-0.6c-0.6,0.3-1.4,0.4-1.8,0.8c0.4,0,2.1-0.1,2.2-0.1c0,0.9,2.2-0.8,1.8,0.6
			c-0.1,0-0.1,0-0.2,0.1c-1.9,1.3-0.9,0.8-2.9,2.9c0.6-0.7,2.3-2.4,2-2.2c0-0.5,1.9,0,0.3,2.1c0,0,0.2,0.1,0.2,0.1
			c0.3-0.1,0,0-0.1,0.1c1.9-0.5,3.2-1.1,4.7-1.8c1.4-0.6,3.3-1.1,4.9-2.4c0.1,0.2,0.2,0.2,0.5,0.1l0.1,0.2c-0.1,1.9-0.8,1.3-1.2,1.7
			c-0.3,0.3-0.6,0.5-0.7,0.5c0.1-0.3-0.1,0-0.1,0l0-0.1c-0.4,1.4-0.7,1.8-2,1.7c-1,0-1.3,0.2-1.4,1.1c-0.6,0-1,0-0.9,1
			c-1.3,1-0.6-0.2-0.2-0.9c-0.2,0.1-0.7,0.6-0.7,0.6c-0.3,0.1-0.3,0.2-0.3,0.4c0.2,0.3,0.4,0.6,0,0.4c-0.1,0,0,0.3,0.3,1.1
			c0-0.3-0.1-0.5-0.1-0.5c0,0.4-0.2,0.4-0.4,0.2c0.4,0.3,0.6,0.6-0.4,0.5c0.4,0.3,0.1,0.6-0.8,1.1c0,0,0-0.1,0-0.1
			c-0.2,0.1-1,0.6-0.9,0.5c-0.5,0.5-0.9,0.8-1.1,0.7c0,0.1,0,0.3,0,0.2c-0.3,0.4-0.3,0.4-0.6,0.6c-0.1,0.6-0.1,1.7,0,2.5
			c0-0.2,0-0.4-0.1-0.6c0,1.9-0.1,3.3-0.9,1.4c0,0-0.6-1.1-0.4-0.7c-0.3-1.6-1.2-2.1-2.2-1.9c0.2-0.2-0.2,0-0.5,0.1
			c0.1-0.1,0.1-0.2,0.1-0.3c-1.4,0.2-1.6,0.7-1.2,1.3c-1.3-0.8-2.8-0.8-3.9,0.2c-0.1,0-0.2,0.1-0.3,0.1c-0.1,0-0.7,0.3-1.1,0.7
			c0.2,0.1-6.8-1.9-9.1-3.7c-2-1.6-3.2-2.2-3.1-3.7C28,34.8,28.1,34.8,28,34.7"/>
		<path fill="#F9A639" d="M31.9,28.4C31.9,28.4,31.9,28.5,31.9,28.4"/>
		<path fill="#F9A639" d="M31.9,28.4C31.9,28.4,31.9,28.5,31.9,28.4"/>
		<path fill="#F9A639" d="M32,22.5C32.1,22.5,32,22.5,32,22.5"/>
		<path fill="#F9A639" d="M32,22.5C32.1,22.5,32,22.5,32,22.5"/>
		<path fill="#F9A639" d="M32,20.9C32,20.9,32,20.9,32,20.9"/>
		<path fill="#F9A639" d="M32,20.9C32,20.9,32,20.9,32,20.9"/>
		<path fill="#F9A639" d="M32.5,27.6C32.6,27.6,32.6,27.6,32.5,27.6"/>
		<path fill="#F9A639" d="M32.5,27.6C32.6,27.6,32.6,27.6,32.5,27.6"/>
		<path fill="#F9A639" d="M40.9,41.8c0,0,0.2,0,0.2-0.1C41,41.8,40.9,41.8,40.9,41.8"/>
		<path fill="#F9A639" d="M40.9,41.8c0,0,0.2,0,0.2-0.1C41,41.8,40.9,41.8,40.9,41.8"/>
		<path fill="#F9A639" d="M42.2,41.1c-0.1,0-0.1,0.1-0.2,0.1C42.1,41.2,42.2,41.1,42.2,41.1C42.3,41,42.2,41.1,42.2,41.1"/>
		<path fill="#F9A639" d="M42.2,41.1c-0.1,0-0.1,0.1-0.2,0.1C42.1,41.2,42.2,41.1,42.2,41.1C42.3,41,42.2,41.1,42.2,41.1"/>
		<path fill="#F9A639" d="M44.2,40.9C44,40.9,44,40.9,44.2,40.9"/>
		<path fill="#F9A639" d="M44.2,40.9C44,40.9,44,40.9,44.2,40.9"/>
		<path fill="#F9A639" d="M44.4,41.1C44.4,41,44.4,41,44.4,41.1"/>
		<path fill="#F9A639" d="M44.4,41.1C44.4,41,44.4,41,44.4,41.1"/>
		<path fill="#F9A639" d="M45.8,40.5C45.7,40.6,45.7,40.5,45.8,40.5"/>
		<path fill="#F9A639" d="M45.8,40.5C45.7,40.6,45.7,40.5,45.8,40.5"/>
		<path fill="#F9A639" d="M48,40.8c0,0,0-0.1,0-0.1C48,40.7,48,40.7,48,40.8"/>
		<path fill="#F9A639" d="M48,40.8c0,0,0-0.1,0-0.1C48,40.7,48,40.7,48,40.8"/>
		<path fill="#F9A639" d="M48.2,40.8c0.1,0,0.2,0,0.2-0.1C48.3,40.8,48.2,40.8,48.2,40.8"/>
		<path fill="#F9A639" d="M48.2,40.8c0.1,0,0.2,0,0.2-0.1C48.3,40.8,48.2,40.8,48.2,40.8"/>
		<path fill="#F9A639" d="M49.4,42.8L49.4,42.8C49.4,42.8,49.4,42.8,49.4,42.8"/>
		<path fill="#F9A639" d="M49.4,42.8L49.4,42.8C49.4,42.8,49.4,42.8,49.4,42.8"/>
		<path fill="#F9A639" d="M49.4,43C49.5,43.2,49.4,43,49.4,43"/>
		<path fill="#F9A639" d="M49.4,43C49.5,43.2,49.4,43,49.4,43"/>
		<path fill="#F9A639" d="M49.5,43c0,0,0-0.1,0-0.1C49.5,43,49.5,43,49.5,43"/>
		<path fill="#F9A639" d="M49.5,43c0,0,0-0.1,0-0.1C49.5,43,49.5,43,49.5,43"/>
		<path fill="#F9A639" d="M49.6,43C49.6,43,49.6,43,49.6,43"/>
		<path fill="#F9A639" d="M49.6,43C49.6,43,49.6,43,49.6,43"/>
		<path fill="#F9A639" d="M49.6,43c0-0.1,0.1-0.1,0.1-0.1C49.7,42.9,49.6,43,49.6,43"/>
		<path fill="#F9A639" d="M49.6,43c0-0.1,0.1-0.1,0.1-0.1C49.7,42.9,49.6,43,49.6,43"/>
		<path fill="#F9A639" d="M49.7,60.7c0.2-2.1,1.4-6,3.2-6.6c0.4-0.1,1.1-0.7,1.5-0.9c0-0.2,0.3,0,0.5,0c-0.2,3.4,0.1,4.4,2.4,7.9
			c0,0-0.1,0-0.1,0c0.2-0.8-1.3-0.6-1.7-0.4c0.1,0.4,0.6,2.7,0,4.2c-0.1-0.1-0.3-0.5-0.4-0.3C54,63.3,51.6,62.5,49.7,60.7"/>
		<path fill="#F9A639" d="M50.2,60C50.2,59.9,50.2,60,50.2,60"/>
		<path fill="#F9A639" d="M50.2,60C50.2,59.9,50.2,60,50.2,60"/>
		<path fill="#F9A639" d="M50.2,60C50.2,60,50.2,60.1,50.2,60"/>
		<path fill="#F9A639" d="M50.2,60C50.2,60,50.2,60.1,50.2,60"/>
		<path fill="#F9A639" d="M50.4,43.9c-0.1,0.1-0.1,0.2-0.2,0.2C50.3,44,50.4,43.9,50.4,43.9"/>
		<path fill="#F9A639" d="M50.4,43.9c-0.1,0.1-0.1,0.2-0.2,0.2C50.3,44,50.4,43.9,50.4,43.9"/>
		<path fill="#F9A639" d="M50.6,39.9c0,0,0,0.1-0.1,0.1C50.5,40,50.6,39.9,50.6,39.9"/>
		<path fill="#F9A639" d="M50.6,39.9c0,0,0,0.1-0.1,0.1C50.5,40,50.6,39.9,50.6,39.9"/>
		<path fill="#F9A639" d="M50.6,41.8L50.6,41.8C50.6,41.6,50.6,41.5,50.6,41.8"/>
		<path fill="#F9A639" d="M50.6,41.8L50.6,41.8C50.6,41.6,50.6,41.5,50.6,41.8"/>
		<path fill="#F9A639" d="M50.7,42.1c0,0.1,0,0.3,0,0.4C50.7,42.4,50.7,42.2,50.7,42.1"/>
		<path fill="#F9A639" d="M50.7,42.1c0,0.1,0,0.3,0,0.4C50.7,42.4,50.7,42.2,50.7,42.1"/>
		<path fill="#F9A639" d="M50.7,58.8C50.8,58.9,50.7,58.8,50.7,58.8"/>
		<path fill="#F9A639" d="M57,33C56.9,33.1,56.9,33.1,57,33"/>
		<path fill="#F9A639" d="M57,33C56.9,33.1,56.9,33.1,57,33"/>
		<path fill="#F9A639" d="M58.9,32.3C58.8,32.5,58.8,32.5,58.9,32.3"/>
		<path fill="#F9A639" d="M58.9,32.3C58.8,32.5,58.8,32.5,58.9,32.3"/>
		<path fill="#F9A639" d="M31.8,23.3C31.8,23.3,31.8,23.3,31.8,23.3L31.8,23.3"/>
		<path fill="#F9A639" d="M31.8,23.3C31.8,23.3,31.8,23.3,31.8,23.3L31.8,23.3"/>
		<path fill="#F9A639" d="M50.8,30C50.7,30,51.4,29.7,50.8,30"/>
		<path fill="#F9A639" d="M50.8,30C50.7,30,51.4,29.7,50.8,30"/>
		<path fill="#F9A639" d="M51.2,28.4c0-0.2-0.2,0-0.3,0.1C50.8,28.7,51.1,28.4,51.2,28.4"/>
		<path fill="#F9A639" d="M51.2,28.4c0-0.2-0.2,0-0.3,0.1C50.8,28.7,51.1,28.4,51.2,28.4"/>
		<path fill="#F9A639" d="M51.2,28.4c0-0.2-0.2,0-0.3,0.1C50.8,28.7,51.1,28.4,51.2,28.4"/>
		<path fill="#F9A639" d="M51.2,28.4c0-0.2-0.2,0-0.3,0.1C50.8,28.7,51.1,28.4,51.2,28.4"/>
		<path fill="#F9A639" d="M50.8,30C50.7,30,51.4,29.7,50.8,30"/>
		<path fill="#F9A639" d="M50.8,30C50.7,30,51.4,29.7,50.8,30"/>
		<path fill="#F9A639" d="M56.8,82.5c-1-12.3,3.3-9.6,6.9-3c0.6,1.1-0.3,1,0.1,1.7c-0.3,0.1,3.5-1.2,2.2-1.2c0,0.1,0.2,0,0.3,0
			c0,0,0.1,0,0.1,0c0,0,0.4,0.9,0.3,0.9c-0.8,3.2-2,6.5-2.5,8.6c0,0.2-0.9-0.1-0.9-0.1c-0.7,1.4,1.4,0.9-1,1.4c0,0,0,0-0.1,0
			c0.3,0.8,0.9,1.5,1.2,1.1c0,0,0.1,0.1,0.1,0.2c0,0,0,0.1,0,0.1c-1.3,0.8-0.7,1.9-0.2,3.5c0.1,0.5-0.2,1.2-0.8,1.3
			c-0.1,0.6,0.2,1.2,1,1.8c-4.2-2.3-3.8-4-5-7.6c-0.8-2.5-1.3-5.7-1.6-8.4"/>
		<path fill="#F9A639" d="M42,51.5c1.7-0.9,0.2-1.8,2.2-2.3c0.2,1,0.2,1.1,0.4,1.5C43.6,52.4,42.8,51,42,51.5"/>
		<path fill="#F9A639" d="M42,51.5c1.7-0.9,0.2-1.8,2.2-2.3c0.2,1,0.2,1.1,0.4,1.5C43.6,52.4,42.8,51,42,51.5"/>
		<path fill="#F9A639" d="M63,59.3c0.9-0.4,0.2-2.3,2.3-1.6C65.1,61.7,63.9,58.9,63,59.3"/>
		<path fill="#F9A639" d="M47.7,56C47.7,56,47.8,56,47.7,56"/>
		<path fill="#F9A639" d="M47.7,56C47.7,56,47.8,56,47.7,56"/>
		<path fill="#F9A639" d="M49.2,63.6C49.2,63.6,49.2,63.6,49.2,63.6L49.2,63.6"/>
		<path fill="#F9A639" d="M49.2,63.6C49.2,63.6,49.2,63.6,49.2,63.6L49.2,63.6"/>
		<path fill="#F9A639" d="M31.9,24.6c-0.1,0-0.1,0.1-0.2,0.1C31.7,24.7,31.8,24.7,31.9,24.6"/>
		<path fill="#F9A639" d="M31.9,24.6c-0.1,0-0.1,0.1-0.2,0.1C31.7,24.7,31.8,24.7,31.9,24.6"/>
		<path fill="#F9A639" d="M41.6,14C41.6,14,41.6,14,41.6,14L41.6,14"/>
		<path fill="#F9A639" d="M41.6,14C41.6,14,41.6,14,41.6,14L41.6,14"/>
		<path fill="#F9A639" d="M41.7,13.9C41.7,13.9,41.7,13.9,41.7,13.9L41.7,13.9"/>
		<path fill="#F9A639" d="M41.7,13.9C41.7,13.9,41.7,13.9,41.7,13.9L41.7,13.9"/>
		<path fill="#F9A639" d="M63.4,14.4C63.3,14.4,62.8,14.5,63.4,14.4"/>
		<path fill="#F9A639" d="M63.4,14.4C63.3,14.4,62.8,14.5,63.4,14.4"/>
		<path fill="#F9A639" d="M54.7,18.7C54.8,18.6,54.8,18.6,54.7,18.7"/>
		<path fill="#F9A639" d="M54.7,18.7C54.8,18.6,54.8,18.6,54.7,18.7"/>
		<path fill="#F9A639" d="M55.3,18.3C55.3,18.3,55.3,18.3,55.3,18.3L55.3,18.3"/>
		<path fill="#F9A639" d="M55.3,18.3C55.3,18.3,55.3,18.3,55.3,18.3L55.3,18.3"/>
		<path fill="#F9A639" d="M56.5,15.3C56.5,15.3,56.5,15.3,56.5,15.3L56.5,15.3"/>
		<path fill="#F9A639" d="M56.5,15.3C56.5,15.3,56.5,15.3,56.5,15.3L56.5,15.3"/>
		<path fill="#F9A639" d="M59.1,12.6C58.9,12.6,58.9,12.6,59.1,12.6"/>
		<path fill="#F9A639" d="M59.1,12.6C58.9,12.6,58.9,12.6,59.1,12.6"/>
		<path fill="#F9A639" d="M61.5,15.6C61.5,15.5,61.5,15.6,61.5,15.6L61.5,15.6"/>
		<path fill="#F9A639" d="M61.5,15.6C61.5,15.5,61.5,15.6,61.5,15.6L61.5,15.6"/>
		<path fill="#F9A639" d="M47.5,51.7C47.5,51.8,47.5,51.8,47.5,51.7"/>
		<path fill="#F9A639" d="M47.5,51.7C47.5,51.8,47.5,51.8,47.5,51.7"/>
		<path fill="#F9A639" d="M45.7,54.5c1.3-0.7,1.9,0,1.7,1.7C46.9,55.4,46.2,54.7,45.7,54.5"/>
		<path fill="#F9A639" d="M45.7,54.5c1.3-0.7,1.9,0,1.7,1.7C46.9,55.4,46.2,54.7,45.7,54.5"/>
		<path fill="#F9A639" d="M49.3,61.2C49.3,61.2,49.3,61.2,49.3,61.2C49.3,61.2,49.3,61.2,49.3,61.2"/>
		<path fill="#F9A639" d="M49.3,61.2C49.3,61.2,49.3,61.2,49.3,61.2C49.3,61.2,49.3,61.2,49.3,61.2"/>
		<path fill="#F9A639" d="M59.6,78.6c3.3-4.9,6.2-4.3,9.3-2c0.1,0.1-3.2,6.1-6.7,4.9c0.2-2.2,0.5-2.3-1.3-3.9"/>
		<path fill="#F9A639" d="M61.3,15.4c0.1,0.1,0,0.1-0.1,0.1C61.4,15.6,60.8,15.5,61.3,15.4C61.2,15.4,61.4,15.4,61.3,15.4
			C61.4,15.5,61.4,15.5,61.3,15.4"/>
		<path fill="#F9A639" d="M61.3,15.4c0.1,0.1,0,0.1-0.1,0.1C61.4,15.6,60.8,15.5,61.3,15.4C61.2,15.4,61.4,15.4,61.3,15.4
			C61.4,15.5,61.4,15.5,61.3,15.4"/>
		<path fill="#F9A639" d="M61.3,15.6C61.4,15.6,61.4,15.6,61.3,15.6"/>
		<path fill="#F9A639" d="M61.3,15.6C61.4,15.6,61.4,15.6,61.3,15.6"/>
		<path fill="#F9A639" d="M53.5,48.6c0.1,0.1,0.2,0.1,0.3,0c1.3-0.4-0.4-0.6,1.2-0.7c0,0.1,0,0.3,0,0.3
			C54.5,49.3,53.8,48.5,53.5,48.6"/>
		<path fill="#F9A639" d="M53.5,48.6c0.1,0.1,0.2,0.1,0.3,0c1.3-0.4-0.4-0.6,1.2-0.7c0,0.1,0,0.3,0,0.3
			C54.5,49.3,53.8,48.5,53.5,48.6"/>
		<path fill="#F9A639" d="M62.1,29.9C62.1,29.9,62.1,29.9,62.1,29.9L62.1,29.9"/>
		<path fill="#F9A639" d="M62.1,29.9C62.1,29.9,62.1,29.9,62.1,29.9L62.1,29.9"/>
		<path fill="#F9A639" d="M62.4,30.4L62.4,30.4C62.4,30.4,62.4,30.4,62.4,30.4"/>
		<path fill="#F9A639" d="M62.4,30.4L62.4,30.4C62.4,30.4,62.4,30.4,62.4,30.4"/>
		<path fill="#F9A639" d="M53,29C52.9,28.8,53,29.1,53,29"/>
		<path fill="#F9A639" d="M53,29C52.9,28.8,53,29.1,53,29"/>
		<path fill="#F9A639" d="M43.2,52.1C44.4,52.1,45.3,52.1,43.2,52.1"/>
		<path fill="#F9A639" d="M43.2,52.1C44.4,52.1,45.3,52.1,43.2,52.1"/>
		<path fill="#F9A639" d="M52.8,54C52.9,54,52.9,54,52.8,54"/>
		<path fill="#F9A639" d="M52.8,54C52.9,54,52.9,54,52.8,54"/>
		<path fill="#F9A639" d="M58.3,58.7c0.6-0.8,3.2-2.1,3.5-2.9c0.1,0.1,0.2,0.2,0.3,0.3c0.5,1.2,4.5,3.9,2.9,4.9
			c-0.4,0.1-2.2-0.5-2.5-0.1c0-0.1-0.2,0-0.2,0.1c-0.3-1.4-2.8-0.2-3.6-1.3"/>
		<path fill="#F9A639" d="M64.6,83.5C67.4,86.4,67.8,86.9,64.6,83.5"/>
		<path fill="#F9A639" d="M64.6,83.5C67.4,86.4,67.8,86.9,64.6,83.5"/>
		<path fill="#F9A639" d="M50.9,48.9c0.7-0.1,1.3-0.2,1,0.2C51.6,49.3,51.2,49.2,50.9,48.9"/>
		<path fill="#F9A639" d="M50.9,48.9c0.7-0.1,1.3-0.2,1,0.2C51.6,49.3,51.2,49.2,50.9,48.9"/>
		<path fill="#F9A639" d="M43.8,51.6c1.2-1,2.7-1.2,3.3-0.8c0.2,0.2,0.1,0.2,0.4,0.3c0.1-0.1,0.1-0.1,0-0.1
			C46.4,52.2,45.1,52.6,43.8,51.6"/>
		<path fill="#F9A639" d="M43.8,51.6c1.2-1,2.7-1.2,3.3-0.8c0.2,0.2,0.1,0.2,0.4,0.3c0.1-0.1,0.1-0.1,0-0.1
			C46.4,52.2,45.1,52.6,43.8,51.6"/>
		<path fill="#F9A639" d="M58.6,93.8C58.7,93.7,58.6,93.7,58.6,93.8L58.6,93.8"/>
		<path fill="#F9A639" d="M58.6,93.8C58.7,93.7,58.6,93.7,58.6,93.8L58.6,93.8"/>
		<path fill="#F9A639" d="M59.2,96.1C59.1,96,59.1,96,59.2,96.1"/>
		<path fill="#F9A639" d="M59.2,96.1C59.1,96,59.1,96,59.2,96.1"/>
		<path fill="#F9A639" d="M59.4,95.8C59.4,95.8,59.4,95.8,59.4,95.8L59.4,95.8"/>
		<path fill="#F9A639" d="M59.4,95.8C59.4,95.8,59.4,95.8,59.4,95.8L59.4,95.8"/>
		<path fill="#F9A639" d="M59.4,97.2C59.5,97.2,59.5,97.2,59.4,97.2L59.4,97.2"/>
		<path fill="#F9A639" d="M59.4,97.2C59.5,97.2,59.5,97.2,59.4,97.2L59.4,97.2"/>
		<path fill="#F9A639" d="M44.7,52.6c0.8-0.5,1.6-1,2.9-1.4c-0.3,1-0.5,1.9-0.6,2C46.6,54.7,45.7,54,44.7,52.6"/>
		<path fill="#F9A639" d="M44.7,52.6c0.8-0.5,1.6-1,2.9-1.4c-0.3,1-0.5,1.9-0.6,2C46.6,54.7,45.7,54,44.7,52.6"/>
		<path fill="#F9A639" d="M61.1,98.6C61.1,98.5,61.1,98.6,61.1,98.6"/>
		<path fill="#F9A639" d="M61.1,98.6C61.1,98.5,61.1,98.6,61.1,98.6"/>
		<path fill="#F9A639" d="M63.5,98.7C63.5,98.7,63.5,98.8,63.5,98.7"/>
		<path fill="#F9A639" d="M63.5,98.7C63.5,98.7,63.5,98.8,63.5,98.7"/>
		<path fill="#F9A639" d="M48.5,63.4c0.1-0.8,0.4-1.7,0.8-2.2c-0.1-0.1,2.2,0.4,2.7,0.7c-0.4,0.6-1.4,2.6-2.3,3.5c0,0-0.1,0-0.1,0
			c-0.1-0.4-0.6-0.5-0.8-0.4c0,0,0.1-0.2,0-0.1C49.6,63.3,49.1,63.8,48.5,63.4"/>
	</g>
</g>
<g>
	<path fill="#003C6F" d="M6.9,124.5H5.3v-12.1h1.5V124.5z"/>
	<path fill="#003C6F" d="M18.2,112.4v12.1h-2.1L11.3,114h0v10.5H9.9v-12.1H12l4.7,10.4h0v-10.4H18.2z"/>
	<path fill="#003C6F" d="M27.8,112.4v1.3h-3.2v10.8H23v-10.8h-3.2v-1.3H27.8z"/>
	<path fill="#003C6F" d="M29.4,124.5v-12.1h6.2v1.3h-4.7v3.9h4.4v1.3h-4.4v4.2h4.8v1.3H29.4z"/>
	<path fill="#003C6F" d="M39.3,118.9v5.6h-1.5v-12.1h4.2c2.1,0,2.9,1.5,2.9,3c0,1.4-0.8,2.5-2.2,2.8v0c1.4,0.2,1.9,0.7,2,3.1
		c0,0.5,0.2,2.4,0.4,3.2h-1.6c-0.4-0.8-0.3-2.4-0.5-4c-0.1-1.5-1.3-1.5-1.8-1.5H39.3z M39.3,117.6h2.3c1.1,0,1.6-1,1.6-2
		c0-0.9-0.4-1.8-1.6-1.8h-2.3V117.6z"/>
	<path fill="#003C6F" d="M55.5,112.4v12.1h-2.1L48.6,114h0v10.5h-1.4v-12.1h2.2l4.7,10.4h0v-10.4H55.5z"/>
	<path fill="#003C6F" d="M61,112.4h2l3.9,12.1h-1.7l-0.9-2.9h-4.7l-0.9,2.9h-1.6L61,112.4z M62,113.8L62,113.8l-1.9,6.5h3.9
		L62,113.8z"/>
	<path fill="#003C6F" d="M74.1,112.4v1.3h-3.2v10.8h-1.5v-10.8h-3.2v-1.3H74.1z"/>
	<path fill="#003C6F" d="M77.4,124.5h-1.5v-12.1h1.5V124.5z"/>
	<path fill="#003C6F" d="M80.3,120.1v-4c0-2.4,1.2-4,3.8-4c2.6,0,3.8,1.5,3.8,4v4c0,3.4-1.2,4.7-3.8,4.7
		C81.5,124.7,80.3,123.4,80.3,120.1z M86.3,120.1V116c0-2.5-1.7-2.6-2.2-2.6c-0.5,0-2.2,0.1-2.2,2.6v4.1c0,2.6,0.8,3.3,2.2,3.3
		S86.3,122.8,86.3,120.1z"/>
	<path fill="#003C6F" d="M99,112.4v12.1h-2.1L92.1,114h0v10.5h-1.4v-12.1h2.2l4.7,10.4h0v-10.4H99z"/>
	<path fill="#003C6F" d="M104.5,112.4h2l3.9,12.1h-1.7l-0.9-2.9h-4.7l-0.9,2.9h-1.6L104.5,112.4z M105.5,113.8L105.5,113.8l-1.9,6.5
		h3.9L105.5,113.8z"/>
	<path fill="#003C6F" d="M112,124.5v-12.1h1.5v10.8h4.4v1.3H112z"/>
	<path fill="#003C6F" d="M123.1,124.5v-12.1h6v1.3h-4.5v3.9h4.2v1.3h-4.2v5.5H123.1z"/>
	<path fill="#003C6F" d="M132.2,118.9v5.6h-1.5v-12.1h4.2c2.1,0,2.9,1.5,2.9,3c0,1.4-0.8,2.5-2.2,2.8v0c1.4,0.2,1.9,0.7,2,3.1
		c0,0.5,0.2,2.4,0.4,3.2h-1.6c-0.4-0.8-0.3-2.4-0.5-4c-0.1-1.5-1.3-1.5-1.8-1.5H132.2z M132.2,117.6h2.3c1.1,0,1.6-1,1.6-2
		c0-0.9-0.4-1.8-1.6-1.8h-2.3V117.6z"/>
	<path fill="#003C6F" d="M142.7,112.4h2l3.9,12.1h-1.7l-0.9-2.9h-4.7l-0.9,2.9h-1.6L142.7,112.4z M143.7,113.8L143.7,113.8l-1.9,6.5
		h3.9L143.7,113.8z"/>
	<path fill="#003C6F" d="M158.6,112.4v12.1h-2.1l-4.8-10.5h0v10.5h-1.4v-12.1h2.2l4.7,10.4h0v-10.4H158.6z"/>
	<path fill="#003C6F" d="M166.8,115.7c0-0.7,0-1.4-0.4-1.8c-0.3-0.4-1-0.5-1.4-0.5c-1.3,0-1.8,0.8-1.8,0.9c0,0.1-0.4,0.4-0.4,2.5
		v3.2c0,3,1,3.3,2.2,3.3c0.5,0,1.9-0.2,1.9-2.5h1.6c0.1,3.8-2.6,3.8-3.4,3.8c-1.5,0-3.8-0.1-3.8-4.8v-3.4c0-3.4,1.5-4.4,3.9-4.4
		c2.4,0,3.3,1.2,3.2,3.6H166.8z"/>
	<path fill="#003C6F" d="M170.9,124.5v-12.1h1.5v5.2h4.2v-5.2h1.5v12.1h-1.5v-5.5h-4.2v5.5H170.9z"/>
	<path fill="#003C6F" d="M182.8,124.5h-1.5v-12.1h1.5V124.5z"/>
	<path fill="#003C6F" d="M186.9,120.9v0.4c0,1.6,1,2.2,2,2.2c1.2,0,2.2-0.5,2.2-2c0-2.7-5.4-2.4-5.4-6c0-2.1,1.5-3.3,3.6-3.3
		c2.2,0,3.5,1.1,3.4,3.5h-1.6c0-1.3-0.4-2.2-1.9-2.2c-0.9,0-1.9,0.5-1.9,1.8c0,2.7,5.4,2.3,5.4,6.1c0,2.6-1.8,3.4-3.8,3.4
		c-3.6,0-3.6-2.7-3.5-3.9H186.9z"/>
	<path fill="#003C6F" d="M195,124.5v-12.1h6.2v1.3h-4.7v3.9h4.4v1.3h-4.4v4.2h4.8v1.3H195z"/>
	<path fill="#003C6F" d="M209.9,112.4h2l3.9,12.1H214l-0.9-2.9h-4.7l-0.9,2.9H206L209.9,112.4z M210.8,113.8L210.8,113.8l-1.9,6.5
		h3.9L210.8,113.8z"/>
	<path fill="#003C6F" d="M218.6,120.9v0.4c0,1.6,1,2.2,2,2.2c1.2,0,2.2-0.5,2.2-2c0-2.7-5.4-2.4-5.4-6c0-2.1,1.5-3.3,3.6-3.3
		c2.2,0,3.5,1.1,3.4,3.5h-1.6c0-1.3-0.4-2.2-1.9-2.2c-0.9,0-1.9,0.5-1.9,1.8c0,2.7,5.4,2.3,5.4,6.1c0,2.6-1.8,3.4-3.8,3.4
		c-3.6,0-3.6-2.7-3.5-3.9H218.6z"/>
	<path fill="#003C6F" d="M227.9,120.9v0.4c0,1.6,1,2.2,2,2.2c1.2,0,2.2-0.5,2.2-2c0-2.7-5.4-2.4-5.4-6c0-2.1,1.5-3.3,3.6-3.3
		c2.2,0,3.5,1.1,3.4,3.5h-1.6c0-1.3-0.4-2.2-1.9-2.2c-0.9,0-1.9,0.5-1.9,1.8c0,2.7,5.4,2.3,5.4,6.1c0,2.6-1.8,3.4-3.8,3.4
		c-3.6,0-3.6-2.7-3.5-3.9H227.9z"/>
	<path fill="#003C6F" d="M236,120.1v-4c0-2.4,1.2-4,3.8-4s3.8,1.5,3.8,4v4c0,3.4-1.2,4.7-3.8,4.7S236,123.4,236,120.1z M242,120.1
		V116c0-2.5-1.7-2.6-2.2-2.6c-0.5,0-2.2,0.1-2.2,2.6v4.1c0,2.6,0.8,3.3,2.2,3.3C241.3,123.4,242,122.8,242,120.1z"/>
	<path fill="#003C6F" d="M251.6,115.7c0-0.7,0-1.4-0.4-1.8c-0.3-0.4-1-0.5-1.4-0.5c-1.3,0-1.8,0.8-1.8,0.9c0,0.1-0.4,0.4-0.4,2.5
		v3.2c0,3,1,3.3,2.2,3.3c0.5,0,1.9-0.2,1.9-2.5h1.6c0.1,3.8-2.6,3.8-3.4,3.8c-1.5,0-3.8-0.1-3.8-4.8v-3.4c0-3.4,1.5-4.4,3.9-4.4
		c2.4,0,3.3,1.2,3.2,3.6H251.6z"/>
	<path fill="#003C6F" d="M257.4,124.5h-1.5v-12.1h1.5V124.5z"/>
	<path fill="#003C6F" d="M263,112.4h2l3.9,12.1h-1.7l-0.9-2.9h-4.7l-0.9,2.9h-1.6L263,112.4z M264,113.8L264,113.8l-1.9,6.5h3.9
		L264,113.8z"/>
	<path fill="#003C6F" d="M276.1,112.4v1.3h-3.2v10.8h-1.5v-10.8h-3.2v-1.3H276.1z"/>
	<path fill="#003C6F" d="M279.4,124.5h-1.5v-12.1h1.5V124.5z"/>
	<path fill="#003C6F" d="M282.3,120.1v-4c0-2.4,1.2-4,3.8-4c2.6,0,3.8,1.5,3.8,4v4c0,3.4-1.2,4.7-3.8,4.7
		C283.5,124.7,282.3,123.4,282.3,120.1z M288.3,120.1V116c0-2.5-1.7-2.6-2.2-2.6c-0.5,0-2.2,0.1-2.2,2.6v4.1c0,2.6,0.8,3.3,2.2,3.3
		C287.6,123.4,288.3,122.8,288.3,120.1z"/>
	<path fill="#003C6F" d="M301,112.4v12.1h-2.1l-4.8-10.5h0v10.5h-1.4v-12.1h2.2l4.7,10.4h0v-10.4H301z"/>
</g>
<g>
	<path fill="#003C6F" d="M127.1,6.2h19.4v87.9h-19.4V6.2z"/>
	<path fill="#003C6F" d="M159.9,6.2h59V24h-39.6v17.9h36.6v17.9h-36.6v34.3h-19.4V6.2z"/>
	<path fill="#003C6F" d="M245,6.2h16l38.2,87.9h-21.9l-7.6-18.6h-34.1l-7.3,18.6H207L245,6.2z M252.4,31.7l-10.7,27.3h21.5
		L252.4,31.7z"/>
</g>
<path fill="#003C6F" d="M278.4,9.3c0-2.2,1.8-4,4-4c2.2,0,4,1.8,4,4c0,2.2-1.8,4-4,4C280.2,13.3,278.4,11.6,278.4,9.3z M285.8,9.3
	c0-1.9-1.6-3.4-3.4-3.4c-1.8,0-3.4,1.5-3.4,3.4c0,1.9,1.6,3.4,3.4,3.4C284.2,12.7,285.8,11.2,285.8,9.3z M284.3,11.5h-0.7l-1.3-2
	h-0.7v2h-0.6V7.1h1.9c0.8,0,1.5,0.2,1.5,1.2c0,0.9-0.6,1.2-1.4,1.2L284.3,11.5z M282.3,8.9c0.5,0,1.5,0.1,1.5-0.6
	c0-0.4-0.6-0.5-1.1-0.5h-1.2v1.1H282.3z"/>
</svg>
